Normalized EMG Linear Envelopes
nRows=140
nColumns=4

endheader
time	 med_gas_r	  soleus_r	 tib_ant_r	
2.99981	  0.080932	  0.112676	  0.073530	
3.0623	  0.114073	  0.100987	  0.067794	
3.1248	  0.134488	  0.092769	  0.062903	
3.1873	  0.141397	  0.089490	  0.059577	
3.24979	  0.141641	  0.090747	  0.058510	
3.31229	  0.139655	  0.095037	  0.059985	
3.37478	  0.137298	  0.100274	  0.063102	
3.43728	  0.136310	  0.104826	  0.065863	
3.49978	  0.136520	  0.107637	  0.066365	
3.56227	  0.137903	  0.107829	  0.063968	
3.62477	  0.142605	  0.105987	  0.059916	
3.68726	  0.150759	  0.104202	  0.057122	
3.74976	  0.158805	  0.103672	  0.058651	
3.81226	  0.164102	  0.104423	  0.066657	
3.87475	  0.168010	  0.106993	  0.082936	
3.93725	  0.172820	  0.111884	  0.108395	
3.99974	  0.179166	  0.117891	  0.142512	
4.06224	  0.189137	  0.122728	  0.186634	
4.12474	  0.207761	  0.125516	  0.245066	
4.18723	  0.236856	  0.128265	  0.318851	
4.24973	  0.269328	  0.134259	  0.401386	
4.31222	  0.294887	  0.144028	  0.480020	
4.37472	  0.309957	  0.153173	  0.541240	
4.43722	  0.316442	  0.155879	  0.578741	
4.49971	  0.315187	  0.151368	  0.592436	
4.56221	  0.307465	  0.145702	  0.582519	
4.6247	  0.298255	  0.146524	  0.558131	
4.6872	  0.292005	  0.155935	  0.539018	
4.7497	  0.290687	  0.168191	  0.536334	
4.81219	  0.299890	  0.175750	  0.550180	
4.87469	  0.326744	  0.177430	  0.582436	
4.93718	  0.369044	  0.177435	  0.629325	
4.99968	  0.414894	  0.178456	  0.674092	
5.06218	  0.449676	  0.180431	  0.704221	
5.12467	  0.461860	  0.183051	  0.723409	
5.18717	  0.452169	  0.186144	  0.741390	
5.24966	  0.434942	  0.190696	  0.760201	
5.31216	  0.424697	  0.200505	  0.768836	
5.37466	  0.425780	  0.220431	  0.752697	
5.43715	  0.434329	  0.250666	  0.712592	
5.49965	  0.446745	  0.282849	  0.664893	
5.56214	  0.466038	  0.307802	  0.621193	
5.62464	  0.497098	  0.328463	  0.583960	
5.68714	  0.537984	  0.356632	  0.561334	
5.74963	  0.580930	  0.396738	  0.565890	
5.81213	  0.615939	  0.440958	  0.595293	
5.87462	  0.629341	  0.475673	  0.626442	
5.93712	  0.610604	  0.485905	  0.634299	
5.99962	  0.566119	  0.464008	  0.613826	
6.06211	  0.515680	  0.421573	  0.580999	
6.12461	  0.475235	  0.384007	  0.557474	
6.1871	  0.450760	  0.368834	  0.555778	
6.2496	  0.443581	  0.373936	  0.570498	
6.3121	  0.455171	  0.386904	  0.584034	
6.37459	  0.486124	  0.399090	  0.585411	
6.43709	  0.529233	  0.407962	  0.577798	
6.49958	  0.566166	  0.412557	  0.568333	
6.56208	  0.575357	  0.411427	  0.557102	
6.62458	  0.547699	  0.404384	  0.535726	
6.68707	  0.498123	  0.397309	  0.500349	
6.74957	  0.457682	  0.400484	  0.467959	
6.81206	  0.448899	  0.415639	  0.466758	
6.87456	  0.467336	  0.431935	  0.503228	
6.93706	  0.486853	  0.440078	  0.549962	
6.99955	  0.485589	  0.439848	  0.572716	
7.06205	  0.466653	  0.432634	  0.562455	
7.12454	  0.449742	  0.420438	  0.537483	
7.18704	  0.448237	  0.409786	  0.521782	
7.24954	  0.461014	  0.405760	  0.526597	
7.31203	  0.477965	  0.409709	  0.547753	
7.37453	  0.486775	  0.426379	  0.573871	
7.43702	  0.481223	  0.458933	  0.595997	
7.49952	  0.464406	  0.494422	  0.611258	
7.56202	  0.441929	  0.511066	  0.618876	
7.62451	  0.419273	  0.505259	  0.616010	
7.68701	  0.404437	  0.496364	  0.604189	
7.7495	  0.402421	  0.502101	  0.594346	
7.812	  0.409646	  0.521106	  0.590667	
7.8745	  0.418286	  0.536602	  0.579129	
7.93699	  0.421711	  0.531871	  0.547503	
7.99949	  0.419107	  0.507369	  0.502409	
8.06198	  0.418746	  0.480985	  0.458446	
8.12448	  0.429829	  0.470122	  0.426049	
8.18698	  0.450117	  0.477396	  0.411162	
8.24947	  0.467097	  0.492459	  0.414191	
8.31197	  0.470599	  0.507467	  0.429071	
8.37446	  0.461877	  0.527021	  0.450877	
8.43696	  0.450843	  0.553287	  0.483537	
8.49946	  0.446797	  0.572461	  0.533062	
8.56195	  0.451436	  0.575720	  0.593170	
8.62445	  0.457255	  0.576165	  0.642883	
8.68694	  0.454672	  0.583988	  0.660663	
8.74944	  0.443060	  0.588862	  0.642347	
8.81194	  0.431628	  0.582186	  0.603762	
8.87443	  0.429062	  0.571328	  0.564514	
8.93693	  0.434706	  0.563876	  0.533091	
8.99942	  0.442242	  0.559478	  0.506801	
9.06192	  0.450688	  0.559041	  0.481671	
9.12442	  0.462791	  0.565040	  0.460992	
9.18691	  0.472496	  0.575409	  0.452518	
9.24941	  0.466815	  0.586349	  0.460342	
9.3119	  0.441902	  0.595215	  0.482663	
9.3744	  0.409919	  0.599194	  0.511232	
9.4369	  0.389741	  0.594333	  0.532402	
9.49939	  0.390182	  0.576598	  0.536797	
9.56189	  0.402150	  0.550153	  0.525740	
9.62438	  0.411686	  0.528901	  0.505566	
9.68688	  0.415014	  0.520396	  0.484330	
9.74938	  0.415844	  0.520536	  0.470043	
9.81187	  0.418651	  0.526272	  0.461877	
9.87437	  0.426871	  0.537007	  0.453006	
9.93686	  0.439894	  0.546510	  0.443184	
9.99936	  0.453117	  0.547351	  0.434567	
10.0619	  0.459933	  0.540858	  0.423282	
10.1244	  0.453311	  0.534474	  0.406165	
10.1868	  0.433660	  0.534658	  0.386132	
10.2493	  0.411197	  0.547607	  0.366345	
10.3118	  0.395698	  0.573221	  0.348079	
10.3743	  0.390977	  0.595206	  0.337489	
10.4368	  0.393662	  0.591570	  0.343373	
10.4993	  0.391588	  0.549181	  0.362922	
10.5618	  0.373551	  0.464256	  0.380314	
10.6243	  0.340073	  0.348869	  0.379236	
10.6868	  0.297986	  0.235388	  0.350688	
10.7493	  0.251808	  0.154303	  0.299148	
10.8118	  0.207498	  0.111841	  0.243628	
10.8743	  0.177600	  0.096464	  0.202377	
10.9368	  0.171343	  0.095236	  0.179691	
10.9993	  0.183536	  0.099093	  0.171234	
11.0618	  0.203699	  0.102095	  0.173660	
11.1243	  0.229714	  0.101595	  0.185252	
11.1868	  0.265352	  0.098173	  0.201670	
11.2493	  0.309847	  0.094118	  0.215890	
11.3118	  0.348048	  0.091483	  0.222163	
11.3743	  0.353509	  0.090893	  0.217289	
11.4368	  0.316828	  0.091542	  0.202364	
11.4993	  0.263205	  0.091783	  0.185656	
11.5618	  0.225365	  0.090103	  0.176033	
11.6243	  0.212140	  0.086362	  0.173669	
11.6868	  0.213020	  0.081597	  0.173759	
